%FSLAX44Y44*%
%MOMM*%
G71*
G01*
G75*
G04 Layer_Physical_Order=2*
G04 Layer_Color=16711680*
%ADD10R,1.4000X1.5000*%
%ADD11O,2.2000X0.6000*%
%ADD12R,1.6000X1.5000*%
%ADD13R,3.3000X1.4000*%
%ADD14R,1.1000X1.5000*%
%ADD15R,1.6000X0.6000*%
%ADD16R,2.3000X2.3000*%
%ADD17R,1.5000X1.4000*%
%ADD18R,1.5000X1.6000*%
%ADD19R,2.5000X2.0000*%
%ADD20R,2.3000X0.5000*%
%ADD21R,1.8000X1.6000*%
%ADD22R,2.4000X3.3000*%
%ADD23R,2.4000X1.0000*%
%ADD24R,1.9000X3.4000*%
%ADD25R,0.6000X1.5000*%
%ADD26O,0.2500X1.5500*%
%ADD27O,1.5500X0.2500*%
%ADD28R,1.5000X0.7000*%
%ADD29R,1.3000X4.5000*%
%ADD30R,2.5000X1.8000*%
%ADD31R,2.3000X2.3000*%
%ADD32R,1.7000X1.1000*%
%ADD33C,0.2540*%
%ADD34C,2.0000*%
%ADD35C,2.3000*%
%ADD36C,1.6500*%
%ADD37C,2.2000*%
%ADD38R,1.6500X1.6500*%
%ADD39R,2.0000X2.0000*%
%ADD40C,0.6000*%
%ADD41O,4.0000X2.0000*%
%ADD42O,2.0000X4.0000*%
%ADD43O,2.0000X4.5000*%
%ADD44C,1.5000*%
%ADD45R,1.5000X1.5000*%
%ADD46O,1.2000X1.7000*%
%ADD47R,1.5000X1.5000*%
%ADD48C,2.0000*%
%ADD49C,3.5000*%
%ADD50C,0.8000*%
D33*
X944118Y996950D02*
Y1068754D01*
X692912Y1462532D02*
Y1491742D01*
Y1462532D02*
X731520Y1423924D01*
Y1344930D02*
Y1423924D01*
X849630Y1321816D02*
Y1322070D01*
Y1321816D02*
X892810Y1278636D01*
Y1086104D02*
Y1278636D01*
X944118Y1068754D02*
X944284Y1068920D01*
X944118Y996950D02*
X959104Y981964D01*
X966978Y987552D02*
X970026Y984504D01*
X966978Y987552D02*
Y993902D01*
X987806Y978916D02*
X1014984D01*
X1126490Y1177036D02*
X1147318Y1156208D01*
X946912Y1097788D02*
Y1125220D01*
X947420Y1125474D02*
X998220Y1176274D01*
X936244Y1128014D02*
X940054Y1131824D01*
X936244Y1090676D02*
Y1128014D01*
Y1090676D02*
X954532Y1072388D01*
Y1017016D02*
Y1072388D01*
X1036320Y957326D02*
X1041146D01*
X1025144Y968502D02*
X1036320Y957326D01*
X1014984Y978916D02*
X1025144Y968756D01*
X1004062Y1540764D02*
X1004570Y1541272D01*
X1049782Y1372870D02*
X1062228Y1385316D01*
X1049782Y1308608D02*
Y1372870D01*
Y1308608D02*
X1103630Y1254760D01*
X1102868Y1151382D02*
Y1221486D01*
Y1151382D02*
X1113282Y1140968D01*
X1147572D01*
X1108710Y1233678D02*
X1138428Y1203960D01*
X1088136Y1233678D02*
X1108710D01*
X1076198Y1245616D02*
X1088136Y1233678D01*
X1014984Y1245616D02*
X1076198D01*
X1138428Y1203960D02*
X1190498D01*
X1096010Y997712D02*
X1096264Y997966D01*
X1004570Y1211326D02*
X1068578D01*
X1004062D02*
X1004570D01*
X997966Y1130046D02*
X1069848Y1201928D01*
X1068578Y1211326D02*
X1069848Y1210056D01*
Y1201928D02*
Y1210056D01*
X1310894Y1590548D02*
X1311148Y1590294D01*
X1288034Y958850D02*
Y1128268D01*
X1257300Y1547876D02*
X1258824Y1549400D01*
X1212596Y1203706D02*
X1288034Y1128268D01*
X1160272Y896874D02*
X1161288Y897890D01*
X1024636Y896874D02*
X1160272D01*
X1011174Y910336D02*
X1024636Y896874D01*
X1005586Y878840D02*
Y896620D01*
X1002030Y900176D02*
X1005586Y896620D01*
X1298702Y1138936D02*
X1305052D01*
X1155192Y1156208D02*
X1166368Y1145032D01*
X1132840Y925830D02*
Y1056132D01*
X1103376Y937006D02*
X1103630D01*
X1102868Y937514D02*
X1103376Y937006D01*
X1102106Y936752D02*
X1102868Y937514D01*
X904240Y1015746D02*
Y1284478D01*
X875792Y1312926D02*
X904240Y1284478D01*
X1100328Y1558544D02*
X1100836Y1558036D01*
X1163320Y998728D02*
Y1070356D01*
X1158748Y1074928D02*
X1163320Y1070356D01*
X1140206Y1074928D02*
X1158748D01*
X1131824Y1066546D02*
X1140206Y1074928D01*
X1059942Y1066546D02*
X1131824D01*
X984758Y1050544D02*
Y1084326D01*
X967486Y1084834D02*
Y1114044D01*
X1023620Y1170178D01*
Y1188720D01*
X1117600Y1188466D02*
X1181354D01*
X1081786Y1098296D02*
X1172210D01*
X1081786D02*
Y1214120D01*
Y1097026D02*
Y1098296D01*
X1172210D02*
X1173734Y1096772D01*
X770878Y1037856D02*
X778002Y1030732D01*
X770878Y1037856D02*
Y1402600D01*
X970682Y869950D02*
Y898758D01*
X831088Y921512D02*
Y922020D01*
X921258Y737616D02*
Y889254D01*
X914654Y731012D02*
X921258Y737616D01*
X883158Y731012D02*
X914654D01*
X853948Y706161D02*
Y731520D01*
X821162Y673374D02*
X853948Y706161D01*
X885444Y1325880D02*
Y1544320D01*
Y1325880D02*
X921766Y1289558D01*
Y952754D02*
Y1289558D01*
X863854Y1003808D02*
X870712Y1010666D01*
X875284D02*
Y1011428D01*
X869188Y653796D02*
Y797052D01*
X847090Y631698D02*
X869188Y653796D01*
X853186Y845058D02*
X875538Y867410D01*
X890524Y835914D02*
Y903478D01*
X827278Y845058D02*
X853186D01*
X826732Y844512D02*
X827278Y845058D01*
X890016Y932688D02*
Y965200D01*
X880364Y974852D02*
X890016Y965200D01*
X837184Y759714D02*
X837438Y759460D01*
Y707390D02*
Y759460D01*
X876046Y974852D02*
X880364D01*
X890016Y903986D02*
X890524Y903478D01*
X875538Y962152D02*
X876046Y962660D01*
X875538Y867410D02*
Y904240D01*
X1336040Y1420368D02*
X1399286D01*
X1223008Y1245110D02*
X1450088D01*
X1223008D02*
Y1336550D01*
X1092776Y644076D02*
Y687900D01*
X1092708Y793496D02*
Y831088D01*
Y793496D02*
X1092962Y793750D01*
X875792Y986536D02*
X881888D01*
X903478Y964946D01*
X1245616Y1640586D02*
X1275842Y1670812D01*
X1389380Y1669796D02*
Y1670812D01*
X677672Y1599344D02*
X799498D01*
X799592Y1599438D01*
X1418590Y1570482D02*
Y1602232D01*
Y1570482D02*
X1423924Y1565148D01*
X1447546D01*
X1448054Y1564640D01*
X676656Y1449578D02*
Y1546098D01*
X678434Y1318006D02*
X706882Y1346454D01*
Y1423924D01*
X707390Y1424432D01*
X657606Y1318006D02*
X678434D01*
X707390Y1477518D02*
X709676Y1479804D01*
X1063244Y1360932D02*
X1115822D01*
X1062228Y1359916D02*
X1063244Y1360932D01*
X1115822D02*
X1175004Y1420114D01*
X1221486Y976122D02*
Y1160526D01*
X1221994Y1161034D01*
X1200658Y1387602D02*
X1207262Y1394206D01*
X858012Y1340358D02*
Y1450848D01*
X857758Y1340104D02*
X858012Y1340358D01*
X831596Y1097534D02*
X832358Y1098296D01*
X1223008Y1211836D02*
Y1245110D01*
Y1211836D02*
X1223518Y1211326D01*
X1065886Y945490D02*
Y973226D01*
X1065276Y973836D02*
X1065886Y973226D01*
X1069340Y1058926D02*
X1111250D01*
X1058926Y1048512D02*
X1069340Y1058926D01*
X1046226Y1048512D02*
X1058926D01*
X1023620Y1025906D02*
X1046226Y1048512D01*
X1023620Y1025398D02*
Y1025906D01*
X1079246Y1216660D02*
X1081786Y1214120D01*
X939038Y1210310D02*
X946658Y1202690D01*
X1047750D01*
X1048004Y1202436D01*
X939038Y1210310D02*
Y1372362D01*
X1147318Y1156208D02*
X1154938D01*
X1126490Y1176782D02*
Y1177036D01*
X885444Y1544320D02*
X885952Y1544828D01*
X887730Y1546606D01*
X933450Y875538D02*
X935990Y872998D01*
X933450Y875538D02*
Y932688D01*
X875538Y932942D02*
Y961136D01*
Y962152D01*
X848576Y793966D02*
X890524Y835914D01*
X826300Y793966D02*
X848576D01*
X903478Y945134D02*
Y964946D01*
X863854Y927862D02*
Y1003808D01*
X870712Y1010666D02*
X875284D01*
X832358Y1098296D02*
Y1408938D01*
X1275842Y1670812D02*
X1389380D01*
X870712Y1010666D02*
X875284D01*
X863854Y927862D02*
Y1003808D01*
X875792Y999236D02*
X881634D01*
X875538Y932942D02*
Y962152D01*
X885444Y1544320D02*
X887730Y1546606D01*
X709676Y1479804D02*
X779272D01*
X865632Y1566164D01*
X1314704D01*
X1328174Y1191975D02*
X1369369Y1233170D01*
X1328174Y1188214D02*
Y1191975D01*
X1286002Y1149096D02*
X1323141D01*
X1305052Y1138936D02*
X1310672Y1144556D01*
X1325728D02*
X1333214Y1152041D01*
X1310672Y1144556D02*
X1325728D01*
X1333214Y1190595D02*
X1371249Y1228630D01*
X1333214Y1152041D02*
Y1190595D01*
X1448808Y1450348D02*
X1463556Y1435600D01*
X1329944Y1450594D02*
X1448308D01*
X1323340Y1457198D02*
X1329944Y1450594D01*
X1323340Y1457198D02*
Y1575562D01*
X1330706Y1527556D02*
X1330960Y1527302D01*
Y1477518D02*
X1346454Y1462024D01*
X1330960Y1477518D02*
Y1527302D01*
X1468596Y1438116D02*
X1486154Y1455674D01*
Y1476502D01*
X1472946Y1489710D02*
X1486154Y1476502D01*
X1346454Y1462024D02*
X1414526D01*
X1442212Y1489710D01*
X1472946D01*
X1212596Y1350010D02*
X1257300Y1394714D01*
Y1547876D01*
X1211072Y1162304D02*
X1222248D01*
X1200658Y1172718D02*
X1211072Y1162304D01*
X1200658Y1172718D02*
Y1387602D01*
X1212596Y1203706D02*
Y1350010D01*
X1101852Y909828D02*
X1111250Y919226D01*
Y1058926D01*
X1119632Y1056132D02*
X1121664D01*
X1121918Y930910D02*
Y1050290D01*
X1118870Y1053338D02*
X1121918Y1050290D01*
X1118870Y1053338D02*
X1121664Y1056132D01*
X1045718Y1021334D02*
X1068832Y1044448D01*
Y1045464D01*
X1069340Y1045972D01*
Y1046480D01*
X1051052Y909828D02*
X1101852D01*
X1026668Y992632D02*
Y1014476D01*
Y992632D02*
X1027684Y993648D01*
X1027938D01*
X1056132Y985520D02*
X1068324Y997712D01*
X1096010D01*
X1056132Y956564D02*
Y985520D01*
X1049020Y949452D02*
X1056132Y956564D01*
X1002030Y928624D02*
X1005586Y932180D01*
Y945388D01*
X1010920Y950722D01*
Y951230D01*
X1015912Y925742D02*
X1103034D01*
X1016762Y964438D02*
X1031748Y949452D01*
X1049020D01*
X1014222Y936752D02*
X1102106D01*
X1002030Y900176D02*
Y928624D01*
X995168Y907542D02*
X995170Y907540D01*
X989838Y907542D02*
X995168D01*
X1290828Y1590294D02*
X1311148D01*
X981456Y983996D02*
Y991870D01*
Y983996D02*
X986536Y978916D01*
X987044D01*
X881634Y999236D02*
X910590Y970280D01*
X916940Y958209D02*
Y990092D01*
X921766Y952754D02*
X922528Y953516D01*
X910590Y933196D02*
X910748Y933354D01*
Y948145D01*
X890778Y1004062D02*
Y1021588D01*
X883158D02*
X890778D01*
X895604Y1011428D02*
X916940Y990092D01*
X895604Y1011428D02*
Y1023366D01*
X888238Y1030732D02*
X895604Y1023366D01*
X778002Y1030732D02*
X888238D01*
X910590Y948303D02*
X910748Y948145D01*
X910590Y948303D02*
Y970280D01*
X915258Y950056D02*
Y956527D01*
X916940Y958209D01*
X915258Y950056D02*
X920750Y944564D01*
X921004Y944372D02*
X932688Y932688D01*
X933450D01*
X930148Y977646D02*
X937514Y970280D01*
X940562Y1072642D02*
X944284Y1068920D01*
X940054Y1072642D02*
X940562D01*
X840740Y916266D02*
X915670D01*
Y916432D01*
Y916266D02*
X916520D01*
X922528Y922274D01*
X831088Y886968D02*
Y921512D01*
X834478Y922528D02*
X840740Y916266D01*
X832104Y922528D02*
X834478D01*
X830072D02*
X831088Y921512D01*
X997966Y1052576D02*
Y1130046D01*
X970280Y984379D02*
X1000087Y953093D01*
X952502Y907540D02*
X995170D01*
X890778Y1004062D02*
X901954Y992886D01*
X902462Y993394D01*
Y993648D01*
X884428Y1558544D02*
X1100328D01*
X875792Y1549908D02*
X884428Y1558544D01*
X875792Y1312926D02*
Y1549908D01*
X1004570Y1211326D02*
Y1405128D01*
X1052322Y1452880D01*
Y1528572D01*
X950214Y1550416D02*
X1148842D01*
X930148Y1530350D02*
X950214Y1550416D01*
X930148Y977646D02*
Y1530350D01*
X1062228Y1385316D02*
Y1533906D01*
X1054862Y1541272D02*
X1062228Y1533906D01*
X1004570Y1541272D02*
X1054862D01*
X911606Y1640586D02*
X1245616D01*
X1449578Y1641602D02*
X1476756Y1614424D01*
Y1590294D02*
Y1614424D01*
X1369369Y1233170D02*
X1452047D01*
X1463556Y1244678D01*
Y1435600D01*
X1371249Y1228630D02*
X1454182D01*
X1468596Y1243044D01*
Y1438116D01*
X1323141Y1149096D02*
X1328166Y1154121D01*
Y1188206D01*
X1328174Y1188214D01*
X970534Y868680D02*
X1148334D01*
X1173734Y894080D01*
Y1096772D01*
D34*
X1386840Y1003063D02*
X1428312Y1044535D01*
X1386840Y918464D02*
Y1003063D01*
Y918464D02*
X1427988Y877316D01*
Y852170D02*
Y852932D01*
X1427226D02*
X1427988D01*
X1510670Y697555D02*
X1543304Y730189D01*
Y777494D01*
X1523492Y797306D02*
X1543304Y777494D01*
X1510792Y797306D02*
X1523492D01*
X1429232Y954534D02*
X1508506Y1033808D01*
Y1040454D01*
Y1043432D01*
X1427988Y852932D02*
Y853034D01*
Y852932D02*
X1429232D01*
X1427988Y853034D02*
Y877316D01*
X1429232Y852932D02*
X1507114D01*
Y797554D02*
Y852932D01*
X1427988D02*
Y877316D01*
Y852932D02*
X1507114D01*
X1508506Y1033808D02*
Y1043432D01*
D35*
X1381178Y792864D02*
D03*
Y653044D02*
D03*
X1428312Y1146035D02*
D03*
X1429232Y954534D02*
D03*
D36*
X1181178Y717865D02*
D03*
Y578044D02*
D03*
D37*
X1431178Y792864D02*
D03*
Y717865D02*
D03*
X1381178D02*
D03*
X1431178Y653044D02*
D03*
Y578044D02*
D03*
X1381178D02*
D03*
X1428312Y1044535D02*
D03*
X1310312Y1041035D02*
D03*
X1429232Y853034D02*
D03*
X1311232Y849534D02*
D03*
D38*
X1181178Y792864D02*
D03*
Y653044D02*
D03*
D39*
X1310312Y1178035D02*
D03*
X1311232Y986534D02*
D03*
X1508892Y990454D02*
D03*
X1510670Y647554D02*
D03*
X619892Y994264D02*
D03*
Y750424D02*
D03*
X1515767Y1523382D02*
D03*
X1507114Y855580D02*
D03*
D40*
X1510033Y1283110D02*
D03*
Y1239110D02*
D03*
D41*
X1457532Y1468368D02*
D03*
D42*
X1487532Y1420368D02*
D03*
D43*
X1425532D02*
D03*
D44*
X770362Y559416D02*
D03*
Y584816D02*
D03*
X795762Y559416D02*
D03*
Y584816D02*
D03*
X821162Y559416D02*
D03*
Y584816D02*
D03*
X846562Y559416D02*
D03*
Y584816D02*
D03*
X871962Y559416D02*
D03*
Y584816D02*
D03*
X897362Y559416D02*
D03*
Y584816D02*
D03*
X922762Y559416D02*
D03*
Y584816D02*
D03*
X948162Y559416D02*
D03*
Y584816D02*
D03*
X973562Y559416D02*
D03*
Y584816D02*
D03*
X998962Y559416D02*
D03*
X612728Y1565148D02*
D03*
X1094232Y1409192D02*
D03*
D45*
X998962Y584816D02*
D03*
X1119632Y1409192D02*
D03*
D46*
X867664Y1640586D02*
D03*
X852932D02*
D03*
X838200D02*
D03*
X732536Y1641094D02*
D03*
X747268D02*
D03*
X762000D02*
D03*
D47*
X612728Y1539748D02*
D03*
D48*
X1508892Y1140454D02*
D03*
Y1090454D02*
D03*
Y1040454D02*
D03*
X1510670Y797554D02*
D03*
Y747554D02*
D03*
Y697555D02*
D03*
X619892Y1144264D02*
D03*
Y1094265D02*
D03*
Y1044264D02*
D03*
Y900424D02*
D03*
Y850424D02*
D03*
Y800424D02*
D03*
X1515767Y1623382D02*
D03*
Y1573382D02*
D03*
X1507114Y905580D02*
D03*
D49*
X637532Y575664D02*
D03*
X1487532D02*
D03*
Y1675664D02*
D03*
X637532D02*
D03*
D50*
X692912Y1491742D02*
D03*
X731520Y1344930D02*
D03*
X849630Y1322070D02*
D03*
X892810Y1086104D02*
D03*
X959104Y981964D02*
D03*
X966978Y993902D02*
D03*
X998728Y951484D02*
D03*
X940054Y1131824D02*
D03*
X954278Y1016254D02*
D03*
X1004062Y1540764D02*
D03*
X1103630Y1254760D02*
D03*
X1102868Y1221486D02*
D03*
X1147572Y1140968D02*
D03*
X1096264Y997966D02*
D03*
X1016762Y964438D02*
D03*
X1043940Y957326D02*
D03*
X1052576Y1528826D02*
D03*
X1310894Y1590548D02*
D03*
X1290828Y1590294D02*
D03*
X1259078D02*
D03*
X1258824Y1549400D02*
D03*
X1288034Y958850D02*
D03*
X1161288Y897890D02*
D03*
X1330960Y1529842D02*
D03*
X1322070Y1576832D02*
D03*
X1314704Y1564894D02*
D03*
X1298702Y1138936D02*
D03*
X1132840Y1056132D02*
D03*
Y925830D02*
D03*
X1103122D02*
D03*
X1012952Y923036D02*
D03*
X1103630Y937006D02*
D03*
X1286002Y1149096D02*
D03*
X1121918Y932942D02*
D03*
X1013206Y936244D02*
D03*
X1148842Y1550416D02*
D03*
X937514Y970280D02*
D03*
X1100836Y1558036D02*
D03*
X1163574Y997458D02*
D03*
X1059942Y1066546D02*
D03*
X1023620Y1188720D02*
D03*
X1115568Y1187958D02*
D03*
X1181354Y1188466D02*
D03*
X952502Y907540D02*
D03*
X770878Y1402600D02*
D03*
X970682Y898758D02*
D03*
X970534Y868680D02*
D03*
X933450Y932688D02*
D03*
X935990Y872998D02*
D03*
X921258Y889254D02*
D03*
X883158Y731012D02*
D03*
X853948Y731520D02*
D03*
X821162Y673374D02*
D03*
X885190Y1545590D02*
D03*
X875792Y999744D02*
D03*
X882396Y1022350D02*
D03*
X875284Y1011428D02*
D03*
X864870Y927862D02*
D03*
X869188Y797052D02*
D03*
X847090Y631698D02*
D03*
X910590Y933196D02*
D03*
X837184Y759714D02*
D03*
X837438Y707390D02*
D03*
X875538Y986536D02*
D03*
X903478Y945134D02*
D03*
X872744Y973836D02*
D03*
X890016Y932688D02*
D03*
Y903986D02*
D03*
X826300Y793966D02*
D03*
X876046Y961136D02*
D03*
X875538Y932942D02*
D03*
Y904240D02*
D03*
X826732Y844512D02*
D03*
X831088Y886968D02*
D03*
X922528Y922528D02*
D03*
X830072D02*
D03*
X1399286Y1420368D02*
D03*
X1336040D02*
D03*
X1450088Y1245110D02*
D03*
X1223008Y1336550D02*
D03*
X1092776Y687900D02*
D03*
Y644076D02*
D03*
X1092708Y831088D02*
D03*
Y793496D02*
D03*
X911606Y1640586D02*
D03*
X1389380Y1669796D02*
D03*
X677672Y1599344D02*
D03*
X799592Y1599438D02*
D03*
X1449578Y1641602D02*
D03*
X1477010Y1590040D02*
D03*
X1418590Y1602232D02*
D03*
X1448054Y1564640D02*
D03*
X676656Y1546098D02*
D03*
Y1449578D02*
D03*
X657606Y1318006D02*
D03*
X707390Y1424432D02*
D03*
Y1477518D02*
D03*
X1175004Y1420114D02*
D03*
X1062228Y1359916D02*
D03*
X1221486Y976122D02*
D03*
X1221994Y1161034D02*
D03*
X1207262Y1394206D02*
D03*
X858012Y1450848D02*
D03*
X857758Y1340104D02*
D03*
X832358Y1408938D02*
D03*
X831596Y1097534D02*
D03*
X1190498Y1203960D02*
D03*
X1014984Y1245616D02*
D03*
X1026668Y1014476D02*
D03*
X1065886Y945490D02*
D03*
X1065276Y973836D02*
D03*
X981964Y993648D02*
D03*
X1005586Y878840D02*
D03*
X1011936Y951992D02*
D03*
X1023620Y1025398D02*
D03*
X1045718Y1021334D02*
D03*
X1081786Y1097026D02*
D03*
X1079246Y1216660D02*
D03*
X939038Y1372362D02*
D03*
X1048004Y1202436D02*
D03*
X1166368Y1145032D02*
D03*
X1126490Y1176782D02*
D03*
X998220Y1176274D02*
D03*
X946912Y1097788D02*
D03*
X1051052Y909320D02*
D03*
X1119632Y1055878D02*
D03*
X1069848Y1047242D02*
D03*
X1027176Y993648D02*
D03*
X1010158Y909828D02*
D03*
X989838Y907542D02*
D03*
X922528Y953516D02*
D03*
X940054Y1072642D02*
D03*
X1223518Y1211326D02*
D03*
X967486Y1084834D02*
D03*
X984758Y1084326D02*
D03*
X984504Y1050544D02*
D03*
X997966Y1052576D02*
D03*
X904240Y1015746D02*
D03*
X902462Y993648D02*
D03*
M02*
