%FSLAX44Y44*%
%MOMM*%
G71*
G01*
G75*
G04 Layer_Color=8421504*
%ADD10R,1.4000X1.5000*%
%ADD11O,2.2000X0.6000*%
%ADD12R,1.6000X1.5000*%
%ADD13R,3.3000X1.4000*%
%ADD14R,1.1000X1.5000*%
%ADD15R,1.6000X0.6000*%
%ADD16R,2.3000X2.3000*%
%ADD17R,1.5000X1.4000*%
%ADD18R,1.5000X1.6000*%
%ADD19R,2.5000X2.0000*%
%ADD20R,2.3000X0.5000*%
%ADD21R,1.8000X1.6000*%
%ADD22R,2.4000X3.3000*%
%ADD23R,2.4000X1.0000*%
%ADD24R,1.9000X3.4000*%
%ADD25R,0.6000X1.5000*%
%ADD26O,0.2500X1.5500*%
%ADD27O,1.5500X0.2500*%
%ADD28R,1.5000X0.7000*%
%ADD29R,1.3000X4.5000*%
%ADD30R,2.5000X1.8000*%
%ADD31R,2.3000X2.3000*%
%ADD32R,1.7000X1.1000*%
%ADD33C,0.2540*%
%ADD34C,2.0000*%
%ADD35C,2.3000*%
%ADD36C,1.6500*%
%ADD37C,2.2000*%
%ADD38R,1.6500X1.6500*%
%ADD39R,2.0000X2.0000*%
%ADD40C,0.6000*%
%ADD41O,4.0000X2.0000*%
%ADD42O,2.0000X4.0000*%
%ADD43O,2.0000X4.5000*%
%ADD44C,1.5000*%
%ADD45R,1.5000X1.5000*%
%ADD46O,1.2000X1.7000*%
%ADD47R,1.5000X1.5000*%
%ADD48C,2.0000*%
%ADD49C,3.5000*%
%ADD50C,0.8000*%
D10*
X685452Y1132332D02*
D03*
X705452D02*
D03*
X1071212Y802640D02*
D03*
X1051212D02*
D03*
X1071212Y662432D02*
D03*
X1051212D02*
D03*
X852172Y1131824D02*
D03*
X872172D02*
D03*
X685452Y900224D02*
D03*
X705452D02*
D03*
X685452Y850392D02*
D03*
X705452D02*
D03*
X683508Y750218D02*
D03*
X703508D02*
D03*
X950682Y621016D02*
D03*
X970682D02*
D03*
X1142652Y1296162D02*
D03*
X1162652D02*
D03*
X879562Y621016D02*
D03*
X899562D02*
D03*
X1394808Y1269492D02*
D03*
X1374808D02*
D03*
X1027082Y1225550D02*
D03*
X1047082D02*
D03*
X1428126Y1527924D02*
D03*
X1448126D02*
D03*
X678529Y1514602D02*
D03*
X658528D02*
D03*
X657338Y1565148D02*
D03*
X677338D02*
D03*
X846634Y1590894D02*
D03*
X866634D02*
D03*
X1193452Y996188D02*
D03*
X1213452D02*
D03*
X1198532Y1188466D02*
D03*
X1218532D02*
D03*
X1394808Y1242822D02*
D03*
X1374808D02*
D03*
X1448634Y1673144D02*
D03*
X1428634D02*
D03*
X685988Y800786D02*
D03*
X705988D02*
D03*
X690532Y1014984D02*
D03*
X710532D02*
D03*
D11*
X1390012Y1551686D02*
D03*
Y1564386D02*
D03*
Y1577086D02*
D03*
Y1589786D02*
D03*
Y1602486D02*
D03*
Y1615186D02*
D03*
Y1627886D02*
D03*
Y1640586D02*
D03*
X1342012Y1551686D02*
D03*
Y1564386D02*
D03*
Y1577086D02*
D03*
Y1589786D02*
D03*
Y1602486D02*
D03*
Y1615186D02*
D03*
Y1627886D02*
D03*
Y1640586D02*
D03*
D12*
X858012Y1491844D02*
D03*
Y1472844D02*
D03*
X756412Y898804D02*
D03*
Y917804D02*
D03*
Y848004D02*
D03*
Y867004D02*
D03*
X1420876Y1645006D02*
D03*
Y1626006D02*
D03*
X858012Y1359814D02*
D03*
Y1378814D02*
D03*
X1305052Y1641196D02*
D03*
Y1622196D02*
D03*
X1044702Y983640D02*
D03*
Y1002640D02*
D03*
X677516Y1424632D02*
D03*
Y1405632D02*
D03*
X1086358Y937920D02*
D03*
Y956920D02*
D03*
X1087120Y1020470D02*
D03*
Y1039470D02*
D03*
X756412Y765404D02*
D03*
Y746404D02*
D03*
Y816204D02*
D03*
Y797204D02*
D03*
X770868Y1598606D02*
D03*
Y1579606D02*
D03*
D13*
X1025652Y1511504D02*
D03*
Y1473504D02*
D03*
X1030732Y1397458D02*
D03*
Y1359458D02*
D03*
D14*
X617794Y1272704D02*
D03*
Y1356704D02*
D03*
X657794D02*
D03*
Y1272704D02*
D03*
D15*
X1122222Y802522D02*
D03*
Y783522D02*
D03*
X1144222Y793022D02*
D03*
X1114938Y662540D02*
D03*
Y643540D02*
D03*
X1136938Y653040D02*
D03*
X1246993Y1188407D02*
D03*
Y1169406D02*
D03*
X1268993Y1178906D02*
D03*
X1285572Y1286510D02*
D03*
X1263572Y1277010D02*
D03*
Y1296010D02*
D03*
X1264832Y986580D02*
D03*
X1242832Y977080D02*
D03*
Y996080D02*
D03*
D16*
X1131938Y707264D02*
D03*
Y752264D02*
D03*
X1129358Y566220D02*
D03*
Y611220D02*
D03*
X1257992Y1078175D02*
D03*
Y1123174D02*
D03*
X1263992Y936754D02*
D03*
Y891754D02*
D03*
D17*
X1448754Y1591544D02*
D03*
Y1611544D02*
D03*
X1203452Y1276510D02*
D03*
Y1296510D02*
D03*
X1354582Y1394554D02*
D03*
Y1374554D02*
D03*
X1416812Y1321910D02*
D03*
Y1301910D02*
D03*
X1004134Y1665124D02*
D03*
Y1685124D02*
D03*
X1052634Y1664948D02*
D03*
Y1684948D02*
D03*
X1100734Y1685124D02*
D03*
Y1665124D02*
D03*
X1149234Y1664948D02*
D03*
Y1684948D02*
D03*
X985520Y1245456D02*
D03*
Y1225456D02*
D03*
X732648Y1599614D02*
D03*
Y1579614D02*
D03*
X852932Y1076104D02*
D03*
Y1096104D02*
D03*
D18*
X952502Y924598D02*
D03*
X971502D02*
D03*
X756768Y1685036D02*
D03*
X737768D02*
D03*
D19*
X1540033Y1305610D02*
D03*
Y1216610D02*
D03*
X1485032D02*
D03*
Y1305610D02*
D03*
D20*
X1484032Y1245110D02*
D03*
Y1253110D02*
D03*
Y1261109D02*
D03*
Y1269109D02*
D03*
Y1277110D02*
D03*
D21*
X1004080Y1594400D02*
D03*
Y1622400D02*
D03*
X1052634Y1594400D02*
D03*
Y1622400D02*
D03*
X1100934Y1594400D02*
D03*
Y1622400D02*
D03*
X1149234Y1594400D02*
D03*
Y1622400D02*
D03*
X1320292Y1350294D02*
D03*
Y1322294D02*
D03*
X852932Y1015144D02*
D03*
Y1043144D02*
D03*
D22*
X910800Y1382776D02*
D03*
X910292Y1490980D02*
D03*
D23*
X968800Y1405776D02*
D03*
Y1382776D02*
D03*
Y1359776D02*
D03*
X968292Y1513980D02*
D03*
Y1490980D02*
D03*
Y1467980D02*
D03*
D24*
X1390592Y1470152D02*
D03*
X1351592D02*
D03*
D25*
X627224Y1424632D02*
D03*
X636724Y1405632D02*
D03*
X617724D02*
D03*
D26*
X989502Y953048D02*
D03*
X984502D02*
D03*
X979502D02*
D03*
X974502D02*
D03*
X969502D02*
D03*
X964502D02*
D03*
X959502D02*
D03*
X954502D02*
D03*
X949502D02*
D03*
X944502D02*
D03*
X939502D02*
D03*
X934502D02*
D03*
Y1033548D02*
D03*
X939502D02*
D03*
X944502D02*
D03*
X949502D02*
D03*
X954502D02*
D03*
X959502D02*
D03*
X964502D02*
D03*
X969502D02*
D03*
X974502D02*
D03*
X979502D02*
D03*
X984502D02*
D03*
X989502D02*
D03*
D27*
X921752Y965798D02*
D03*
Y970798D02*
D03*
Y975798D02*
D03*
Y980798D02*
D03*
Y985798D02*
D03*
Y990798D02*
D03*
Y995798D02*
D03*
Y1000798D02*
D03*
Y1005798D02*
D03*
Y1010798D02*
D03*
Y1015798D02*
D03*
Y1020798D02*
D03*
X1002252D02*
D03*
Y1015798D02*
D03*
Y1010798D02*
D03*
Y1005798D02*
D03*
Y1000798D02*
D03*
Y995798D02*
D03*
Y990798D02*
D03*
Y985798D02*
D03*
Y980798D02*
D03*
Y975798D02*
D03*
Y970798D02*
D03*
Y965798D02*
D03*
D28*
X743852Y1132224D02*
D03*
Y1157364D02*
D03*
X818852D02*
D03*
Y1132224D02*
D03*
X817026Y1014346D02*
D03*
Y989206D02*
D03*
X742026D02*
D03*
Y1014346D02*
D03*
D29*
X1146302Y1039584D02*
D03*
Y939584D02*
D03*
D30*
X1199648Y1472529D02*
D03*
Y1420529D02*
D03*
X1295648D02*
D03*
Y1472529D02*
D03*
D31*
X1147212Y1472438D02*
D03*
X1102213D02*
D03*
X1223412Y1364487D02*
D03*
X1178412D02*
D03*
D32*
X806132Y742404D02*
D03*
Y769404D02*
D03*
X805688Y793966D02*
D03*
Y820966D02*
D03*
X805434Y844512D02*
D03*
Y871512D02*
D03*
X804926Y895606D02*
D03*
Y922606D02*
D03*
M02*
