%FSLAX44Y44*%
%MOMM*%
G71*
G01*
G75*
G04 Layer_Physical_Order=1*
G04 Layer_Color=255*
%ADD10R,1.4000X1.5000*%
%ADD11O,2.2000X0.6000*%
%ADD12R,1.6000X1.5000*%
%ADD13R,3.3000X1.4000*%
%ADD14R,1.1000X1.5000*%
%ADD15R,1.6000X0.6000*%
%ADD16R,2.3000X2.3000*%
%ADD17R,1.5000X1.4000*%
%ADD18R,1.5000X1.6000*%
%ADD19R,2.5000X2.0000*%
%ADD20R,2.3000X0.5000*%
%ADD21R,1.8000X1.6000*%
%ADD22R,2.4000X3.3000*%
%ADD23R,2.4000X1.0000*%
%ADD24R,1.9000X3.4000*%
%ADD25R,0.6000X1.5000*%
%ADD26O,0.2500X1.5500*%
%ADD27O,1.5500X0.2500*%
%ADD28R,1.5000X0.7000*%
%ADD29R,1.3000X4.5000*%
%ADD30R,2.5000X1.8000*%
%ADD31R,2.3000X2.3000*%
%ADD32R,1.7000X1.1000*%
%ADD33C,0.2540*%
%ADD34C,2.0000*%
%ADD35C,2.3000*%
%ADD36C,1.6500*%
%ADD37C,2.2000*%
%ADD38R,1.6500X1.6500*%
%ADD39R,2.0000X2.0000*%
%ADD40C,0.6000*%
%ADD41O,4.0000X2.0000*%
%ADD42O,2.0000X4.0000*%
%ADD43O,2.0000X4.5000*%
%ADD44C,1.5000*%
%ADD45R,1.5000X1.5000*%
%ADD46O,1.2000X1.7000*%
%ADD47R,1.5000X1.5000*%
%ADD48C,2.0000*%
%ADD49C,3.5000*%
%ADD50C,0.8000*%
D10*
X685452Y1132332D02*
D03*
X705452D02*
D03*
X1071212Y802640D02*
D03*
X1051212D02*
D03*
X1071212Y662432D02*
D03*
X1051212D02*
D03*
X852172Y1131824D02*
D03*
X872172D02*
D03*
X685452Y900224D02*
D03*
X705452D02*
D03*
X685452Y850392D02*
D03*
X705452D02*
D03*
X683508Y750218D02*
D03*
X703508D02*
D03*
X950682Y621016D02*
D03*
X970682D02*
D03*
X1142652Y1296162D02*
D03*
X1162652D02*
D03*
X879562Y621016D02*
D03*
X899562D02*
D03*
X1394808Y1269492D02*
D03*
X1374808D02*
D03*
X1027082Y1225550D02*
D03*
X1047082D02*
D03*
X1428126Y1527924D02*
D03*
X1448126D02*
D03*
X678529Y1514602D02*
D03*
X658528D02*
D03*
X657338Y1565148D02*
D03*
X677338D02*
D03*
X846634Y1590894D02*
D03*
X866634D02*
D03*
X1193452Y996188D02*
D03*
X1213452D02*
D03*
X1198532Y1188466D02*
D03*
X1218532D02*
D03*
X1394808Y1242822D02*
D03*
X1374808D02*
D03*
X1448634Y1673144D02*
D03*
X1428634D02*
D03*
X685988Y800786D02*
D03*
X705988D02*
D03*
X690532Y1014984D02*
D03*
X710532D02*
D03*
D11*
X1390012Y1551686D02*
D03*
Y1564386D02*
D03*
Y1577086D02*
D03*
Y1589786D02*
D03*
Y1602486D02*
D03*
Y1615186D02*
D03*
Y1627886D02*
D03*
Y1640586D02*
D03*
X1342012Y1551686D02*
D03*
Y1564386D02*
D03*
Y1577086D02*
D03*
Y1589786D02*
D03*
Y1602486D02*
D03*
Y1615186D02*
D03*
Y1627886D02*
D03*
Y1640586D02*
D03*
D12*
X858012Y1491844D02*
D03*
Y1472844D02*
D03*
X756412Y898804D02*
D03*
Y917804D02*
D03*
Y848004D02*
D03*
Y867004D02*
D03*
X1420876Y1645006D02*
D03*
Y1626006D02*
D03*
X858012Y1359814D02*
D03*
Y1378814D02*
D03*
X1305052Y1641196D02*
D03*
Y1622196D02*
D03*
X1044702Y983640D02*
D03*
Y1002640D02*
D03*
X677516Y1424632D02*
D03*
Y1405632D02*
D03*
X1086358Y937920D02*
D03*
Y956920D02*
D03*
X1087120Y1020470D02*
D03*
Y1039470D02*
D03*
X756412Y765404D02*
D03*
Y746404D02*
D03*
Y816204D02*
D03*
Y797204D02*
D03*
X770868Y1598606D02*
D03*
Y1579606D02*
D03*
D13*
X1025652Y1511504D02*
D03*
Y1473504D02*
D03*
X1030732Y1397458D02*
D03*
Y1359458D02*
D03*
D14*
X617794Y1272704D02*
D03*
Y1356704D02*
D03*
X657794D02*
D03*
Y1272704D02*
D03*
D15*
X1122222Y802522D02*
D03*
Y783522D02*
D03*
X1144222Y793022D02*
D03*
X1114938Y662540D02*
D03*
Y643540D02*
D03*
X1136938Y653040D02*
D03*
X1246993Y1188407D02*
D03*
Y1169406D02*
D03*
X1268993Y1178906D02*
D03*
X1285572Y1286510D02*
D03*
X1263572Y1277010D02*
D03*
Y1296010D02*
D03*
X1264832Y986580D02*
D03*
X1242832Y977080D02*
D03*
Y996080D02*
D03*
D16*
X1131938Y707264D02*
D03*
Y752264D02*
D03*
X1129358Y566220D02*
D03*
Y611220D02*
D03*
X1257992Y1078175D02*
D03*
Y1123174D02*
D03*
X1263992Y936754D02*
D03*
Y891754D02*
D03*
D17*
X1448754Y1591544D02*
D03*
Y1611544D02*
D03*
X1203452Y1276510D02*
D03*
Y1296510D02*
D03*
X1354582Y1394554D02*
D03*
Y1374554D02*
D03*
X1416812Y1321910D02*
D03*
Y1301910D02*
D03*
X1004134Y1665124D02*
D03*
Y1685124D02*
D03*
X1052634Y1664948D02*
D03*
Y1684948D02*
D03*
X1100734Y1685124D02*
D03*
Y1665124D02*
D03*
X1149234Y1664948D02*
D03*
Y1684948D02*
D03*
X985520Y1245456D02*
D03*
Y1225456D02*
D03*
X732648Y1599614D02*
D03*
Y1579614D02*
D03*
X852932Y1076104D02*
D03*
Y1096104D02*
D03*
D18*
X952502Y924598D02*
D03*
X971502D02*
D03*
X756768Y1685036D02*
D03*
X737768D02*
D03*
D19*
X1540033Y1305610D02*
D03*
Y1216610D02*
D03*
X1485032D02*
D03*
Y1305610D02*
D03*
D20*
X1484032Y1245110D02*
D03*
Y1253110D02*
D03*
Y1261109D02*
D03*
Y1269109D02*
D03*
Y1277110D02*
D03*
D21*
X1004080Y1594400D02*
D03*
Y1622400D02*
D03*
X1052634Y1594400D02*
D03*
Y1622400D02*
D03*
X1100934Y1594400D02*
D03*
Y1622400D02*
D03*
X1149234Y1594400D02*
D03*
Y1622400D02*
D03*
X1320292Y1350294D02*
D03*
Y1322294D02*
D03*
X852932Y1015144D02*
D03*
Y1043144D02*
D03*
D22*
X910800Y1382776D02*
D03*
X910292Y1490980D02*
D03*
D23*
X968800Y1405776D02*
D03*
Y1382776D02*
D03*
Y1359776D02*
D03*
X968292Y1513980D02*
D03*
Y1490980D02*
D03*
Y1467980D02*
D03*
D24*
X1390592Y1470152D02*
D03*
X1351592D02*
D03*
D25*
X627224Y1424632D02*
D03*
X636724Y1405632D02*
D03*
X617724D02*
D03*
D26*
X989502Y953048D02*
D03*
X984502D02*
D03*
X979502D02*
D03*
X974502D02*
D03*
X969502D02*
D03*
X964502D02*
D03*
X959502D02*
D03*
X954502D02*
D03*
X949502D02*
D03*
X944502D02*
D03*
X939502D02*
D03*
X934502D02*
D03*
Y1033548D02*
D03*
X939502D02*
D03*
X944502D02*
D03*
X949502D02*
D03*
X954502D02*
D03*
X959502D02*
D03*
X964502D02*
D03*
X969502D02*
D03*
X974502D02*
D03*
X979502D02*
D03*
X984502D02*
D03*
X989502D02*
D03*
D27*
X921752Y965798D02*
D03*
Y970798D02*
D03*
Y975798D02*
D03*
Y980798D02*
D03*
Y985798D02*
D03*
Y990798D02*
D03*
Y995798D02*
D03*
Y1000798D02*
D03*
Y1005798D02*
D03*
Y1010798D02*
D03*
Y1015798D02*
D03*
Y1020798D02*
D03*
X1002252D02*
D03*
Y1015798D02*
D03*
Y1010798D02*
D03*
Y1005798D02*
D03*
Y1000798D02*
D03*
Y995798D02*
D03*
Y990798D02*
D03*
Y985798D02*
D03*
Y980798D02*
D03*
Y975798D02*
D03*
Y970798D02*
D03*
Y965798D02*
D03*
D28*
X743852Y1132224D02*
D03*
Y1157364D02*
D03*
X818852D02*
D03*
Y1132224D02*
D03*
X817026Y1014346D02*
D03*
Y989206D02*
D03*
X742026D02*
D03*
Y1014346D02*
D03*
D29*
X1146302Y1039584D02*
D03*
Y939584D02*
D03*
D30*
X1199648Y1472529D02*
D03*
Y1420529D02*
D03*
X1295648D02*
D03*
Y1472529D02*
D03*
D31*
X1147212Y1472438D02*
D03*
X1102213D02*
D03*
X1223412Y1364487D02*
D03*
X1178412D02*
D03*
D32*
X806132Y742404D02*
D03*
Y769404D02*
D03*
X805688Y793966D02*
D03*
Y820966D02*
D03*
X805434Y844512D02*
D03*
Y871512D02*
D03*
X804926Y895606D02*
D03*
Y922606D02*
D03*
D33*
X818134Y677418D02*
X820420Y675132D01*
X574294Y1259078D02*
X587920Y1272704D01*
X617794D01*
X692404Y1492250D02*
X692912Y1491742D01*
X960270Y980798D02*
X1002252D01*
X731520Y1344930D02*
X732282Y1344168D01*
X959104Y981964D02*
X960270Y980798D01*
X975360Y985774D02*
X998220D01*
X974852Y986282D02*
X975360Y985774D01*
X974852Y986282D02*
Y991870D01*
X972820Y993902D02*
X974852Y991870D01*
X966978Y993902D02*
X972820D01*
X990600Y991108D02*
X997712D01*
X988060Y993648D02*
X990600Y991108D01*
X981964Y993648D02*
X988060D01*
X981964D02*
X984250D01*
X872236Y1131824D02*
X940054D01*
X1004062Y1540764D02*
Y1549654D01*
X1102868Y1253998D02*
X1103630Y1254760D01*
X1147572Y1140968D02*
X1148588D01*
X1180846Y1108710D01*
Y1030478D02*
Y1108710D01*
X1157986Y1007618D02*
X1180846Y1030478D01*
X1105916Y1007618D02*
X1157986D01*
X1096264Y997966D02*
X1105916Y1007618D01*
X1016762Y964438D02*
Y966978D01*
X1012942Y970798D02*
X1016762Y966978D01*
X1002252Y970798D02*
X1012942D01*
X1044296Y956920D02*
X1086358D01*
X997966Y1051052D02*
Y1052576D01*
X989502Y1042588D02*
X997966Y1051052D01*
X989502Y1033548D02*
Y1042588D01*
X1337818Y1590548D02*
X1338072Y1590294D01*
X1310894Y1590548D02*
X1337818D01*
X1259078Y1590294D02*
X1290828D01*
X1258824Y1590040D02*
X1259078Y1590294D01*
X1258824Y1549400D02*
Y1590040D01*
X1252728Y958850D02*
X1288034D01*
X1191768Y897890D02*
X1252728Y958850D01*
X1161288Y897890D02*
X1191768D01*
X1324864Y1577340D02*
X1337818D01*
X1007364Y901192D02*
X1013968D01*
X1001014Y907542D02*
X1007364Y901192D01*
X1005523Y896302D02*
X1014792D01*
X995172Y907542D02*
X1001014D01*
X998474Y889254D02*
X1005523Y896302D01*
X1322324Y1604772D02*
Y1615186D01*
X1302766Y1604772D02*
X1322324D01*
X1301242Y1603248D02*
X1302766Y1604772D01*
X1102868Y937514D02*
X1115314D01*
X1204468Y1138936D02*
X1298702D01*
X1166114Y1145032D02*
X1166368D01*
X1132840Y1056132D02*
Y1141730D01*
X1104812Y924140D02*
X1131150D01*
X1132840Y925830D01*
X1103122D02*
X1104812Y924140D01*
X1103376Y937006D02*
X1103630D01*
X1102868Y937514D02*
X1103376Y937006D01*
X1115314Y937514D02*
X1121918Y930910D01*
X1014222Y936752D02*
Y937514D01*
X921258Y889254D02*
X998474D01*
X1148842Y1555750D02*
X1149234Y1555358D01*
X1149350Y1555242D01*
X1149234Y1555358D02*
Y1594400D01*
X1148842Y1550416D02*
Y1555750D01*
X1149350Y1551178D02*
Y1555242D01*
X938951Y970280D02*
X939502Y969728D01*
X938951Y970280D02*
X939038D01*
X937514D02*
X938951D01*
X939502Y953048D02*
Y969728D01*
X1100934Y1558036D02*
Y1594400D01*
X904494Y1015798D02*
X921752D01*
X1052634Y1529842D02*
Y1594400D01*
X1004080Y1549890D02*
Y1594400D01*
X1163574Y996188D02*
X1193452D01*
X984504Y1036320D02*
Y1050544D01*
X1023620Y1188720D02*
X1024382Y1187958D01*
X1114298D01*
X1181354Y1188466D02*
X1198532D01*
X944880Y1036320D02*
Y1059942D01*
X956056Y1114044D02*
X967740Y1125728D01*
X952502Y907540D02*
Y924598D01*
X732648Y1579614D02*
X770878D01*
X881634Y1021842D02*
X881888Y1022096D01*
X872236Y1021842D02*
X881634D01*
X740156Y988314D02*
X740918Y989076D01*
X715772Y988314D02*
X740156D01*
X709822Y994264D02*
X715772Y988314D01*
X619892Y994264D02*
X709822D01*
X970682Y898758D02*
Y924200D01*
X954532Y942594D02*
Y947166D01*
X952502Y924598D02*
Y940564D01*
X944372Y943610D02*
Y946912D01*
X933450Y932688D02*
X944372Y943610D01*
X923798Y923798D02*
X952500D01*
X922528Y922528D02*
X923798Y923798D01*
X935990Y872998D02*
X950682Y858306D01*
X821162Y584816D02*
Y673374D01*
X1007364Y975868D02*
X1021334D01*
X882650Y731520D02*
X883158Y731012D01*
X853948Y731520D02*
X882650D01*
X806132Y742404D02*
X832828D01*
X827062Y769404D02*
X837438Y779780D01*
X806132Y769404D02*
X827062D01*
X822454Y895606D02*
X857084Y930236D01*
X804926Y952754D02*
X817118Y964946D01*
X865632Y1015238D02*
X872236Y1021842D01*
X858774Y1015238D02*
X865632D01*
X846074Y1566672D02*
X866140Y1546606D01*
X921752Y952768D02*
X921766Y952754D01*
X921752Y952768D02*
Y965798D01*
X875792Y986282D02*
X876554Y985520D01*
X903732Y992886D02*
X905820Y990798D01*
X921752D01*
X875284Y1011428D02*
X887984D01*
X897206Y970788D02*
X916432D01*
X857084Y930236D02*
Y930666D01*
X875538Y904240D02*
Y932942D01*
X890016Y903986D02*
Y932688D01*
X903224Y812800D02*
Y944880D01*
X910590Y812546D02*
Y933196D01*
X782066Y896112D02*
X803910D01*
X780034Y898144D02*
X782066Y896112D01*
X863854Y898398D02*
X869188Y893064D01*
Y797052D02*
Y893064D01*
X837438Y663140D02*
X879562Y621016D01*
X846562Y631170D02*
X847090Y631698D01*
X846562Y584816D02*
Y631170D01*
X900176Y802132D02*
X910590Y812546D01*
X897362Y600944D02*
X900176Y603758D01*
X897362Y584816D02*
Y600944D01*
X998962Y584816D02*
Y585704D01*
Y559416D02*
Y584816D01*
X972058Y621284D02*
X987044D01*
X999236Y609092D01*
Y585978D02*
Y609092D01*
X998962Y585704D02*
X999236Y585978D01*
X879602Y603758D02*
Y620014D01*
Y603758D02*
X884428Y598932D01*
Y571883D02*
Y598932D01*
X871962Y559416D02*
X884428Y571883D01*
X922762Y559416D02*
X923436D01*
X871962D02*
X897362D01*
X846562D02*
X871962D01*
X821162D02*
X846562D01*
X795762D02*
X821162D01*
X827786Y768604D02*
X828294D01*
X837184Y759714D01*
X837438Y663140D02*
Y707390D01*
X757682Y747014D02*
X776986D01*
X783844Y769620D02*
X805688D01*
X881634Y980440D02*
X914654D01*
X876046Y974852D02*
X881634Y980440D01*
X804926Y922782D02*
Y952754D01*
Y922606D02*
Y922782D01*
X805688Y793966D02*
X826300D01*
X837438Y779780D02*
Y810006D01*
X805434Y844512D02*
X826732D01*
X805688Y820966D02*
X826046D01*
X831088Y875792D02*
Y886968D01*
X826808Y871512D02*
X831088Y875792D01*
X804926Y922606D02*
X829994D01*
X756412Y765404D02*
X779628D01*
X783082Y821182D02*
X805434D01*
X778104Y816204D02*
X783082Y821182D01*
X756412Y816204D02*
X778104D01*
X777850Y867004D02*
X782574Y871728D01*
X756412Y867004D02*
X777850D01*
X780390Y917804D02*
X785368Y922782D01*
X756412Y917804D02*
X780390D01*
X725014Y750218D02*
X729234Y745998D01*
X703508Y750218D02*
X725014D01*
X726008Y800786D02*
X730250Y796544D01*
X804164Y794258D02*
X804672Y793750D01*
X782066Y794258D02*
X804164D01*
X778764Y797560D02*
X782066Y794258D01*
X756666Y797560D02*
X778764D01*
X730250Y796544D02*
X755650D01*
X705988Y800786D02*
X726008D01*
X806704Y845058D02*
X806958Y845312D01*
X756158Y847090D02*
X756412Y846836D01*
X727710Y850392D02*
X731012Y847090D01*
X705452Y850392D02*
X727710D01*
X732488Y900224D02*
X734568Y898144D01*
X705452Y900224D02*
X732488D01*
X683152Y750424D02*
X683260Y750316D01*
X619892Y750424D02*
X683152D01*
X619892Y800424D02*
X685476D01*
X683990Y850424D02*
X684022Y850392D01*
X619892Y850424D02*
X683990D01*
X619892Y900424D02*
X685298D01*
X945605Y600165D02*
X950722Y605282D01*
X922762Y584816D02*
X925430D01*
X940779Y600165D01*
X941070Y600456D01*
X940779Y600165D02*
X945605D01*
X1487532Y1420368D02*
Y1438548D01*
Y1420368D02*
Y1445406D01*
X1465326Y1467612D02*
X1475740Y1457198D01*
X1457706Y1467612D02*
X1465326D01*
X1433830Y1470152D02*
X1454913D01*
X1390012Y1640586D02*
X1404874D01*
X1409700Y1645412D02*
X1419606D01*
X1405992Y1626006D02*
X1420876D01*
X1404112Y1627886D02*
X1405992Y1626006D01*
X1392936Y1627886D02*
X1404112D01*
X1305052Y1622196D02*
X1320698D01*
X1326896Y1628394D01*
X1340104D01*
X1366520Y1627886D02*
X1390012D01*
X1342012Y1589662D02*
Y1589786D01*
Y1602486D01*
X1295648Y1472529D02*
X1327313D01*
X1329944Y1469898D01*
X1350772D01*
X1321976Y1321910D02*
X1416812D01*
X1399286Y1420368D02*
X1425532D01*
X1335786Y1420622D02*
X1336040Y1420368D01*
X1299464Y1420622D02*
X1335786D01*
X1322324Y1615186D02*
X1342012D01*
X1199642Y1401826D02*
X1206914Y1394554D01*
X1199642Y1401826D02*
Y1418590D01*
X1149949Y1472529D02*
X1199648D01*
X1131825Y1364487D02*
X1178412D01*
X1120140Y1376172D02*
X1131825Y1364487D01*
X1120140Y1376172D02*
Y1408684D01*
X1320292Y1286256D02*
Y1322294D01*
X1287272Y1286256D02*
X1320292D01*
X1223008Y1336550D02*
Y1361692D01*
X1450088Y1245110D02*
X1484032D01*
X1205332Y1277010D02*
X1263572D01*
X1163414Y1296510D02*
X1203452D01*
X1268993Y1178906D02*
X1269154Y1179068D01*
X1306322D01*
X1131938Y707264D02*
X1168020D01*
X1178814Y718058D01*
X1136938Y653040D02*
X1178300D01*
X1129358Y611220D02*
X1177386D01*
X1181862Y615696D01*
Y651256D01*
X1129358Y566220D02*
X1168346D01*
X1179576Y577451D01*
X1181178Y578044D02*
X1205992Y602858D01*
X1263650Y821436D02*
Y889254D01*
X1311232Y849534D02*
X1337818Y876120D01*
Y1014984D01*
X1071212Y662432D02*
X1112012D01*
X1071212Y802640D02*
X1118870D01*
X1092776Y783522D02*
X1122222D01*
X1092776Y687900D02*
Y783522D01*
Y644076D02*
X1113858D01*
X1086358Y837438D02*
X1092708Y831088D01*
Y783590D02*
Y793496D01*
X762508Y1640586D02*
X839216D01*
X1124928Y939584D02*
X1146302D01*
X1109472Y955040D02*
X1124928Y939584D01*
X1087628Y955040D02*
X1109472D01*
X1087590Y1039584D02*
X1146302D01*
X1119632Y1409192D02*
Y1429512D01*
X1101598Y1447546D02*
X1119632Y1429512D01*
X1068578Y1409192D02*
X1094232D01*
X1056132Y1396746D02*
X1068578Y1409192D01*
X995222Y1473504D02*
X1025652D01*
X988314Y1466596D02*
X995222Y1473504D01*
X970280Y1467104D02*
X970788Y1466596D01*
X995476Y1511504D02*
X1025652D01*
X993140Y1513840D02*
X995476Y1511504D01*
X970280Y1513840D02*
X993140D01*
X756768Y1661058D02*
Y1685036D01*
Y1661058D02*
X760730Y1657096D01*
X734060Y1644650D02*
Y1662176D01*
X747268Y1624076D02*
Y1641094D01*
X741172Y1617980D02*
X747268Y1624076D01*
X733806Y1617980D02*
X741172D01*
X732536Y1616710D02*
X733806Y1617980D01*
X732536Y1603502D02*
Y1616710D01*
X768604Y1624584D02*
X770868Y1622320D01*
X761492Y1624584D02*
X768604D01*
X761492D02*
Y1640078D01*
X852932Y1616710D02*
Y1640586D01*
X845820Y1609598D02*
X852932Y1616710D01*
X845820Y1592580D02*
Y1609598D01*
X1301330Y1684948D02*
X1305433Y1680845D01*
X1305814Y1680464D01*
X1389380Y1669796D02*
X1389888Y1669288D01*
Y1641348D02*
Y1669288D01*
X866648Y1640586D02*
X911606D01*
X1004134Y1623750D02*
Y1665124D01*
X1052634Y1625796D02*
Y1664948D01*
X1100734Y1624940D02*
Y1665124D01*
X1149234Y1623176D02*
Y1664948D01*
X677338Y1565148D02*
Y1599010D01*
X677672Y1599344D01*
X771906Y1599438D02*
X799592D01*
X770868Y1598606D02*
Y1622320D01*
X612728Y1565148D02*
X655320D01*
X677516Y1424632D02*
X678380D01*
X617724Y1358396D02*
Y1405632D01*
X636724D02*
X676406D01*
X910292Y1490980D02*
X968292D01*
X799592Y1508506D02*
Y1599438D01*
Y1508506D02*
X835406Y1472692D01*
X856996D01*
X858914Y1359776D02*
X968800D01*
X858012Y1378814D02*
X885546D01*
X890016Y1383284D01*
X909574D01*
X910082Y1382776D01*
X866634Y1590894D02*
X866648D01*
X866810D01*
X866648Y1590548D02*
Y1590880D01*
X866634Y1590894D02*
X866648Y1590880D01*
X1390012Y1589786D02*
X1431798D01*
X1430782Y1609598D02*
X1445768D01*
X1434338Y1592326D02*
X1447038D01*
X1421257Y1600073D02*
X1430782Y1609598D01*
X1431798Y1589786D02*
X1434338Y1592326D01*
X1448754Y1611544D02*
X1478448D01*
X1490980Y1624076D01*
X1513840D01*
X1448634Y1642546D02*
Y1673144D01*
Y1642546D02*
X1449578Y1641602D01*
X1451864Y1590040D02*
X1477010D01*
X1490980Y1576070D01*
X1512570D02*
X1515364Y1573276D01*
X1490980Y1576070D02*
X1512570D01*
X1514094D01*
X1390012Y1602486D02*
X1418336D01*
X1448054Y1528064D02*
Y1564640D01*
X987552Y1225456D02*
X1026762D01*
X1213452Y996188D02*
X1241552D01*
X1028294Y1002640D02*
X1044702D01*
X677338Y1546780D02*
Y1565148D01*
X676656Y1546098D02*
X677338Y1546780D01*
X676656Y1426464D02*
Y1449578D01*
X657794Y1272704D02*
Y1317818D01*
X657606Y1318006D02*
X657794Y1317818D01*
X627224Y1424632D02*
X675894D01*
X730250Y1406144D02*
Y1486916D01*
X729742Y1405636D02*
X730250Y1406144D01*
X1315212Y1564386D02*
X1342012D01*
X1314704Y1564894D02*
X1315212Y1564386D01*
X619892Y1144264D02*
X650754D01*
X662940Y1132078D01*
X681990D01*
X640956Y1157364D02*
X743852D01*
X705452Y1132332D02*
X737362D01*
X818852Y1132224D02*
X849484D01*
X619892Y1044264D02*
X639756D01*
X670306Y1013714D02*
X686562D01*
X639756Y1044264D02*
X670306Y1013714D01*
X710532Y1014984D02*
X737616D01*
X817026Y1014346D02*
X850008D01*
X1175419Y1420529D02*
X1199648D01*
X1033780Y1359916D02*
X1062228D01*
X1242832Y966734D02*
Y977080D01*
X1186180Y910082D02*
X1242832Y966734D01*
X1221486Y976122D02*
X1222444Y977080D01*
X1065886Y937920D02*
X1086358D01*
X1065784Y938022D02*
X1065886Y937920D01*
X858012Y1450848D02*
Y1472844D01*
X857758Y1340104D02*
Y1357884D01*
X875030Y1490980D02*
X910292D01*
X875030Y1414018D02*
Y1490980D01*
X869696Y1408684D02*
X875030Y1414018D01*
X836422Y1408684D02*
X869696D01*
X831596Y1097534D02*
X833120Y1099058D01*
X1070864Y1432560D02*
X1094232Y1409192D01*
X1070864Y1432560D02*
Y1513332D01*
X1068832Y1515364D02*
X1070864Y1513332D01*
X1028192Y1515364D02*
X1068832D01*
X1190498Y1203960D02*
X1194308Y1207770D01*
X1187766Y1204152D02*
Y1206692D01*
X1190498Y1203960D01*
X986536Y1245616D02*
X1014984D01*
X1004570Y995680D02*
X1015238D01*
X1065886Y937920D02*
Y945490D01*
X1065276Y973836D02*
Y981964D01*
X1051212Y802640D02*
Y908558D01*
X1014095Y1015873D02*
X1023620Y1025398D01*
X1044702Y1002640D02*
Y1020318D01*
X1045718Y1021334D01*
X1069340Y1046480D02*
Y1084580D01*
X1081786Y1097026D01*
X1052830Y1226058D02*
X1058258D01*
X938784Y1372616D02*
X939038Y1372362D01*
X1048004Y1202436D02*
Y1221994D01*
X1232971Y1078175D02*
X1257992D01*
X1167765Y1143381D02*
X1232971Y1078175D01*
X998728Y1176782D02*
X1126490D01*
X998220Y1176274D02*
X998728Y1176782D01*
X1101598Y1447546D02*
Y1472438D01*
Y1474724D01*
X1418336Y1602486D02*
X1418590D01*
X1418336D02*
X1418590Y1602232D01*
X1454913Y1470152D02*
X1457114Y1467950D01*
X1457706Y1467358D01*
X846074Y1566672D02*
Y1590894D01*
Y1593088D01*
X866140Y1546606D02*
X885190D01*
X887730D01*
X950682Y621016D02*
Y858306D01*
X950722Y605282D02*
Y622046D01*
X734568Y898144D02*
X756412D01*
X780034D01*
X804926Y895606D02*
X822454D01*
X857084Y930666D02*
X897206Y970788D01*
X731012Y847090D02*
X756158D01*
X781558Y845058D02*
X805434D01*
X756412Y846836D02*
X779780D01*
X781558Y845058D01*
X805434D02*
X806704D01*
X876046Y962660D02*
X889254Y975868D01*
X916178D01*
X755650Y796544D02*
X756361Y797255D01*
X756666Y797560D01*
X776986Y747014D02*
X782066Y741934D01*
X807212D01*
X729234Y745998D02*
X756666D01*
X757682Y747014D01*
X832828Y742404D02*
X903224Y812800D01*
Y944880D02*
X903478Y945134D01*
X900176Y603758D02*
Y802132D01*
X863854Y898398D02*
Y927862D01*
X617794Y1274892D02*
Y1356704D01*
X1203350Y1296010D02*
X1203452D01*
X1263572D01*
X770362Y559416D02*
X795762D01*
X779628Y765404D02*
X783844Y769620D01*
X826046Y820966D02*
X826262Y821182D01*
X805434Y871512D02*
X826808D01*
X923436Y559416D02*
X923798Y559054D01*
X897362Y559416D02*
X922762D01*
X826262Y821182D02*
X837438Y810006D01*
X826262Y821182D02*
X838454Y833374D01*
X826516Y871220D02*
X838454Y859282D01*
Y833374D02*
Y859282D01*
X675894Y1425448D02*
X676910Y1424432D01*
X760730Y1642364D02*
Y1657096D01*
X785368Y922782D02*
X804926D01*
X817118Y964946D02*
Y990092D01*
X952502Y940564D02*
X954532Y942594D01*
X1086358Y837438D02*
Y937920D01*
X1003300Y985774D02*
X1003554Y986028D01*
X1044702Y983640D02*
X1085596D01*
Y1019302D01*
X1092776Y644076D02*
X1093724Y643128D01*
X1086866Y910082D02*
X1186180D01*
X1222444Y977080D02*
X1242832D01*
X973786Y1359458D02*
X1030732D01*
X1175004Y1420114D02*
X1175419Y1420529D01*
X970788Y1466596D02*
X988314D01*
X1206914Y1394554D02*
X1207262Y1394206D01*
X1206914Y1394554D02*
X1354582D01*
X1447038Y1361440D02*
X1453898Y1354579D01*
X1343152Y1552448D02*
X1366520D01*
X1342390Y1627886D02*
X1366520D01*
Y1510284D02*
Y1552448D01*
Y1510284D02*
X1370838Y1505966D01*
X1366520Y1552448D02*
Y1627886D01*
X853948Y1097788D02*
X946658D01*
X858520Y1490980D02*
X875030D01*
X866648Y1590894D02*
Y1640586D01*
X1205992Y602858D02*
Y685292D01*
X1178687Y712597D02*
X1205992Y685292D01*
X1181178Y717865D02*
Y738964D01*
X1263650Y821436D01*
X1312926Y1039876D02*
X1337818Y1014984D01*
X1404874Y1640586D02*
X1409700Y1645412D01*
X938784Y1372616D02*
Y1382776D01*
X970682Y621016D02*
Y868426D01*
X679704Y1514602D02*
X701040D01*
X701802Y1515364D02*
X730250Y1486916D01*
X701040Y1514602D02*
X701802Y1515364D01*
X734060Y1662176D02*
X737768Y1665884D01*
X910844Y1382776D02*
X938784D01*
X968800D01*
X737768Y1665884D02*
Y1685036D01*
X1047449Y1226011D02*
X1052830D01*
X1064260Y1231646D02*
X1079246Y1216660D01*
X1305052Y1641196D02*
X1338732D01*
X1149234Y1684948D02*
X1301330D01*
X1305433Y1641983D02*
Y1680845D01*
X685476Y800424D02*
X685551Y800349D01*
X685800Y800100D01*
X1218532Y1188466D02*
X1245108D01*
X1015238Y995680D02*
X1018286Y992632D01*
X1026668Y1014476D02*
Y1016000D01*
X1050138Y1039470D02*
X1087120D01*
X1026668Y1016000D02*
X1050138Y1039470D01*
X1000302Y1397458D02*
X1030732D01*
X1030224Y1396746D02*
X1056132D01*
X685476Y800424D02*
X685800Y800100D01*
X1144222Y793022D02*
X1181828D01*
X677418Y1405636D02*
X729742D01*
X866648Y1590880D02*
Y1590894D01*
Y1590880D02*
X869266Y1588262D01*
X831596Y1097534D02*
X852932D01*
X923798Y559054D02*
X974598D01*
X676910Y1424432D02*
X707390D01*
X782574Y871728D02*
X806450D01*
X1449324Y1592580D02*
X1451864Y1590040D01*
X1203350Y1296010D02*
X1263572D01*
X863854Y898398D02*
Y927862D01*
X756666Y745998D02*
X757682Y747014D01*
X755650Y796544D02*
X756666Y797560D01*
X756412Y846836D02*
X779780D01*
X781558Y845058D02*
X806704D01*
X734568Y898144D02*
X780034D01*
X866140Y1546606D02*
X887730D01*
X846074Y1566672D02*
Y1593088D01*
X1454913Y1470152D02*
X1457706Y1467358D01*
X1475740Y1457198D02*
X1487532Y1445406D01*
X1390592Y1470152D02*
X1433830D01*
X1418336Y1602486D02*
X1418590D01*
X1101598Y1447546D02*
Y1474724D01*
X1301242Y1539494D02*
Y1603248D01*
Y1539494D02*
X1310894Y1529842D01*
X1330960D01*
X1202690Y1148842D02*
X1285748D01*
X1286002Y1149096D01*
X1221994Y1161034D02*
X1222248D01*
X1230884Y1169670D01*
X1245108D01*
Y1170432D01*
X1257992Y1123174D02*
X1299196D01*
X1310640Y1134618D01*
Y1176020D01*
X1311402Y1176782D01*
X1119632Y1056132D02*
X1121664D01*
X1122934Y1060704D02*
Y1138936D01*
X1120394Y1058164D02*
X1122934Y1060704D01*
X1120394Y1057402D02*
Y1058164D01*
Y1057402D02*
X1121664Y1056132D01*
X1008253Y1015873D02*
X1014095D01*
X1030732Y983488D02*
X1043432D01*
X1018286Y992632D02*
X1026668D01*
X1003300Y985774D02*
X1028446D01*
X1030732Y983488D01*
X1026668Y992632D02*
X1027684Y993648D01*
X1027938D01*
X1026572Y1000918D02*
X1028294Y1002640D01*
X1004316Y1000760D02*
X1004474Y1000918D01*
X1026572D01*
X1002792Y958596D02*
Y965708D01*
Y958596D02*
X1008634Y952754D01*
X1009142D01*
X1021334Y975868D02*
X1026668Y970534D01*
Y908179D02*
Y970534D01*
X1013968Y901192D02*
X1021588Y908812D01*
X1014792Y896302D02*
X1015141Y896652D01*
X1015848D01*
X1026128Y906932D01*
Y907639D01*
X1026668Y908179D01*
X1021588Y908812D02*
Y939546D01*
X1012698Y939038D02*
X1014222Y937514D01*
X1002667Y943864D02*
X1017270D01*
X1021588Y939546D01*
X995170Y907540D02*
X995172Y907542D01*
X995168D02*
X995170Y907540D01*
X989838Y907542D02*
X995168D01*
X969518Y925364D02*
X970682Y924200D01*
X969518Y925364D02*
Y947674D01*
X1001498Y920012D02*
X1011174Y910336D01*
X974598Y942086D02*
Y948436D01*
Y942086D02*
X996672Y920012D01*
X1001498D01*
X1013722Y924552D02*
X1014222Y924052D01*
X979502Y943735D02*
X998686Y924552D01*
X1013722D01*
X990620Y939038D02*
X1012698D01*
X979502Y943735D02*
Y953048D01*
X984504Y945154D02*
X990620Y939038D01*
X984504Y945154D02*
Y952090D01*
X921766Y952754D02*
X922528Y953516D01*
X770878Y1402600D02*
Y1579614D01*
X940054Y1072642D02*
X940562D01*
X1471168Y1253110D02*
X1484032D01*
X1469438Y1254839D02*
X1471168Y1253110D01*
Y1261109D02*
X1484032D01*
X1420114Y1254839D02*
X1469438D01*
X1102868Y1221486D02*
Y1253998D01*
X1107026Y1274826D02*
X1198118D01*
X1058258Y1226058D02*
X1107026Y1274826D01*
X1366520Y1242822D02*
X1374808D01*
X1355455Y1253887D02*
X1366520Y1242822D01*
Y1269492D02*
X1374808D01*
X1355455Y1258427D02*
X1366520Y1269492D01*
X1178814Y1164590D02*
X1204468Y1138936D01*
X1180846Y1170686D02*
X1202690Y1148842D01*
X1219962Y1207770D02*
X1223518Y1211326D01*
X1194308Y1207770D02*
X1219962D01*
X1132840Y1141730D02*
X1155700Y1164590D01*
X1178814D01*
X1122934Y1138936D02*
X1154684Y1170686D01*
X1180846D01*
X852932Y1043144D02*
Y1073404D01*
X944880Y1059942D02*
X956056Y1071118D01*
X892810Y1086104D02*
X927100D01*
X940562Y1072642D01*
X956056Y1071118D02*
Y1114044D01*
X984758Y1223518D02*
X985520Y1224280D01*
X1019556Y1087914D02*
X1055148D01*
X984758Y1084326D02*
Y1223518D01*
X954532Y1017016D02*
X955294Y1016254D01*
X982726D01*
X987270Y1020798D01*
X1002252D01*
Y1070610D02*
X1019556Y1087914D01*
X978662Y1070610D02*
X1002252D01*
X1059466Y1066070D02*
X1059942Y1066546D01*
X988854Y1066070D02*
X1059466D01*
X1000371Y1075150D02*
X1017675Y1092454D01*
X964502Y1033548D02*
Y1041718D01*
X988854Y1066070D01*
X959272Y1051220D02*
X978662Y1070610D01*
X959272Y1042900D02*
Y1051220D01*
X954732Y1053101D02*
X976781Y1075150D01*
X954732Y1042900D02*
Y1053101D01*
X967486Y1072275D02*
Y1084834D01*
X949706Y1054495D02*
X967486Y1072275D01*
X949706Y1039368D02*
Y1054495D01*
X959272Y1042900D02*
X959502Y1042670D01*
Y1033548D02*
Y1042670D01*
X954502D02*
X954732Y1042900D01*
X954502Y1033548D02*
Y1042670D01*
X1221121Y1253887D02*
X1355455D01*
X1055148Y1087914D02*
X1221121Y1253887D01*
X1219240Y1258427D02*
X1355455D01*
X1053268Y1092454D02*
X1219240Y1258427D01*
X1017675Y1092454D02*
X1053268D01*
X976781Y1075150D02*
X1000371D01*
X1374808Y1269492D02*
Y1285146D01*
X1391920Y1302258D01*
X1416304D01*
X998982Y947549D02*
X1002667Y943864D01*
X887984Y1011428D02*
X893572Y1005840D01*
X914908D01*
X901954Y992886D02*
X903732D01*
X876554Y985774D02*
X916940D01*
X901954Y992886D02*
X902462Y993394D01*
Y993648D01*
X915512Y1000918D02*
X915670Y1000760D01*
X877474Y1000918D02*
X915512D01*
X875792Y999236D02*
X877474Y1000918D01*
X574294Y752856D02*
Y1259078D01*
Y752856D02*
X649732Y677418D01*
X818134D01*
X1005586Y689356D02*
Y878840D01*
Y689356D02*
X1032510Y662432D01*
X1051212D01*
X995172Y1296162D02*
X1142652D01*
X967740Y1268730D02*
X995172Y1296162D01*
X967740Y1125728D02*
Y1268730D01*
X748284Y1322070D02*
X849630D01*
X732282Y1338072D02*
X748284Y1322070D01*
X732282Y1338072D02*
Y1344168D01*
X744728Y1380236D02*
X857504D01*
X729742Y1395222D02*
X744728Y1380236D01*
X729742Y1395222D02*
Y1405636D01*
X621792Y1477518D02*
X707390D01*
X598424Y1454150D02*
X621792Y1477518D01*
X610616Y1407414D02*
X614680D01*
X598424Y1419606D02*
X610616Y1407414D01*
X598424Y1419606D02*
Y1454150D01*
X701802Y1515364D02*
Y1625346D01*
X717550Y1641094D01*
X733552D01*
X612728Y1524682D02*
Y1539748D01*
Y1524682D02*
X621618Y1515792D01*
X655908D01*
X664972Y1492250D02*
X692404D01*
X658528Y1498694D02*
X664972Y1492250D01*
X658528Y1498694D02*
Y1514602D01*
X864362Y1589278D02*
X893572D01*
X908050Y1574800D01*
X891540Y1532890D02*
X908050Y1549400D01*
Y1574800D01*
X874014Y1532890D02*
X891540D01*
X858012Y1516888D02*
X874014Y1532890D01*
X858012Y1495552D02*
Y1516888D01*
X942384Y1423968D02*
X968292Y1449876D01*
Y1467980D01*
X942384Y1406100D02*
Y1423968D01*
X969264Y1362710D02*
Y1366266D01*
X942384Y1406100D02*
X954532Y1393952D01*
X982726D01*
X990092Y1386586D01*
Y1378712D02*
Y1386586D01*
X969264Y1366266D02*
X973836Y1370838D01*
X982218D01*
X990092Y1378712D01*
X991984Y1405776D02*
X1000302Y1397458D01*
X968800Y1405776D02*
X991984D01*
X737768Y1696618D02*
X747420Y1706270D01*
X737768Y1685036D02*
Y1696618D01*
X747420Y1706270D02*
X767436D01*
X788924Y1684782D01*
X1149350D01*
X1150366Y1685798D01*
X1394068Y1551570D02*
X1418452D01*
X1428126Y1541896D01*
Y1527924D02*
Y1541896D01*
X1428496Y1515364D02*
Y1527556D01*
Y1515364D02*
X1433322Y1510538D01*
X1465834D01*
X1478678Y1523382D01*
X1515767D01*
X1320292Y1350294D02*
X1345722D01*
X1354836Y1359408D01*
Y1373886D01*
X1356106Y1394968D02*
X1368552D01*
X1402080Y1361440D01*
X1447038D01*
X1354074Y1396492D02*
Y1405636D01*
X1370838Y1422400D01*
Y1505966D01*
X1453898Y1289301D02*
Y1354579D01*
Y1289301D02*
X1466091Y1277110D01*
X1484032D01*
X1469438Y1259380D02*
X1471168Y1261109D01*
X1419812Y1259380D02*
X1469438D01*
X1409700Y1269492D02*
X1419812Y1259380D01*
X1399032Y1269492D02*
X1409700D01*
X1408858Y1243584D02*
X1420114Y1254839D01*
X1398270Y1243584D02*
X1408858D01*
X1257992Y1078175D02*
X1293169D01*
X1309933Y1061411D01*
Y1044139D02*
Y1061411D01*
X1264832Y986580D02*
X1311232D01*
X1264832D02*
X1312374D01*
X1264666Y936498D02*
X1295908D01*
X1311232Y951822D01*
Y986534D01*
X1263992Y891754D02*
X1295694D01*
X1312164Y875284D01*
Y850900D02*
Y875284D01*
X1131938Y752264D02*
X1160696D01*
X1181946Y773514D01*
Y791888D01*
X804796Y989206D02*
X817026D01*
X781174Y1012828D02*
X804796Y989206D01*
X805818Y1157608D02*
X819534D01*
X781174Y1132964D02*
X805818Y1157608D01*
X781174Y1012828D02*
Y1132964D01*
X596646Y1115314D02*
X617728Y1094232D01*
Y1093978D02*
Y1094232D01*
X631952Y1166368D02*
X640956Y1157364D01*
X596646Y1115314D02*
Y1147826D01*
X615188Y1166368D01*
X631952D01*
X1420876Y1645920D02*
Y1654556D01*
X1428634Y1662314D01*
Y1673144D01*
D34*
X1434090Y1140454D02*
X1508892D01*
Y1087496D02*
Y1090454D01*
Y1087496D02*
X1535430Y1060958D01*
Y1013714D02*
Y1060958D01*
X1512316Y990600D02*
X1535430Y1013714D01*
X1404620Y676910D02*
Y741426D01*
X1466760Y791464D02*
X1510670Y747554D01*
X1436370Y791464D02*
X1466760D01*
X1505190Y653034D02*
X1510670Y647554D01*
X1434084Y653034D02*
X1505190D01*
X1383792Y656082D02*
X1404620Y676910D01*
X1380998Y765048D02*
X1404620Y741426D01*
X1380998Y868426D02*
X1418336Y905764D01*
X1503680D01*
X1507114Y905580D02*
Y988192D01*
X1380998Y765048D02*
Y792864D01*
Y868426D01*
D35*
X1381178Y792864D02*
D03*
Y653044D02*
D03*
X1428312Y1146035D02*
D03*
X1429232Y954534D02*
D03*
D36*
X1181178Y717865D02*
D03*
Y578044D02*
D03*
D37*
X1431178Y792864D02*
D03*
Y717865D02*
D03*
X1381178D02*
D03*
X1431178Y653044D02*
D03*
Y578044D02*
D03*
X1381178D02*
D03*
X1428312Y1044535D02*
D03*
X1310312Y1041035D02*
D03*
X1429232Y853034D02*
D03*
X1311232Y849534D02*
D03*
D38*
X1181178Y792864D02*
D03*
Y653044D02*
D03*
D39*
X1310312Y1178035D02*
D03*
X1311232Y986534D02*
D03*
X1508892Y990454D02*
D03*
X1510670Y647554D02*
D03*
X619892Y994264D02*
D03*
Y750424D02*
D03*
X1515767Y1523382D02*
D03*
X1507114Y855580D02*
D03*
D40*
X1510033Y1283110D02*
D03*
Y1239110D02*
D03*
D41*
X1457532Y1468368D02*
D03*
D42*
X1487532Y1420368D02*
D03*
D43*
X1425532D02*
D03*
D44*
X770362Y559416D02*
D03*
Y584816D02*
D03*
X795762Y559416D02*
D03*
Y584816D02*
D03*
X821162Y559416D02*
D03*
Y584816D02*
D03*
X846562Y559416D02*
D03*
Y584816D02*
D03*
X871962Y559416D02*
D03*
Y584816D02*
D03*
X897362Y559416D02*
D03*
Y584816D02*
D03*
X922762Y559416D02*
D03*
Y584816D02*
D03*
X948162Y559416D02*
D03*
Y584816D02*
D03*
X973562Y559416D02*
D03*
Y584816D02*
D03*
X998962Y559416D02*
D03*
X612728Y1565148D02*
D03*
X1094232Y1409192D02*
D03*
D45*
X998962Y584816D02*
D03*
X1119632Y1409192D02*
D03*
D46*
X867664Y1640586D02*
D03*
X852932D02*
D03*
X838200D02*
D03*
X732536Y1641094D02*
D03*
X747268D02*
D03*
X762000D02*
D03*
D47*
X612728Y1539748D02*
D03*
D48*
X1508892Y1140454D02*
D03*
Y1090454D02*
D03*
Y1040454D02*
D03*
X1510670Y797554D02*
D03*
Y747554D02*
D03*
Y697555D02*
D03*
X619892Y1144264D02*
D03*
Y1094265D02*
D03*
Y1044264D02*
D03*
Y900424D02*
D03*
Y850424D02*
D03*
Y800424D02*
D03*
X1515767Y1623382D02*
D03*
Y1573382D02*
D03*
X1507114Y905580D02*
D03*
D49*
X637532Y575664D02*
D03*
X1487532D02*
D03*
Y1675664D02*
D03*
X637532D02*
D03*
D50*
X692912Y1491742D02*
D03*
X731520Y1344930D02*
D03*
X849630Y1322070D02*
D03*
X892810Y1086104D02*
D03*
X959104Y981964D02*
D03*
X966978Y993902D02*
D03*
X998728Y951484D02*
D03*
X940054Y1131824D02*
D03*
X954278Y1016254D02*
D03*
X1004062Y1540764D02*
D03*
X1103630Y1254760D02*
D03*
X1102868Y1221486D02*
D03*
X1147572Y1140968D02*
D03*
X1096264Y997966D02*
D03*
X1016762Y964438D02*
D03*
X1043940Y957326D02*
D03*
X1052576Y1528826D02*
D03*
X1310894Y1590548D02*
D03*
X1290828Y1590294D02*
D03*
X1259078D02*
D03*
X1258824Y1549400D02*
D03*
X1288034Y958850D02*
D03*
X1161288Y897890D02*
D03*
X1330960Y1529842D02*
D03*
X1322070Y1576832D02*
D03*
X1314704Y1564894D02*
D03*
X1298702Y1138936D02*
D03*
X1132840Y1056132D02*
D03*
Y925830D02*
D03*
X1103122D02*
D03*
X1012952Y923036D02*
D03*
X1103630Y937006D02*
D03*
X1286002Y1149096D02*
D03*
X1121918Y932942D02*
D03*
X1013206Y936244D02*
D03*
X1148842Y1550416D02*
D03*
X937514Y970280D02*
D03*
X1100836Y1558036D02*
D03*
X1163574Y997458D02*
D03*
X1059942Y1066546D02*
D03*
X1023620Y1188720D02*
D03*
X1115568Y1187958D02*
D03*
X1181354Y1188466D02*
D03*
X952502Y907540D02*
D03*
X770878Y1402600D02*
D03*
X970682Y898758D02*
D03*
X970534Y868680D02*
D03*
X933450Y932688D02*
D03*
X935990Y872998D02*
D03*
X921258Y889254D02*
D03*
X883158Y731012D02*
D03*
X853948Y731520D02*
D03*
X821162Y673374D02*
D03*
X885190Y1545590D02*
D03*
X875792Y999744D02*
D03*
X882396Y1022350D02*
D03*
X875284Y1011428D02*
D03*
X864870Y927862D02*
D03*
X869188Y797052D02*
D03*
X847090Y631698D02*
D03*
X910590Y933196D02*
D03*
X837184Y759714D02*
D03*
X837438Y707390D02*
D03*
X875538Y986536D02*
D03*
X903478Y945134D02*
D03*
X872744Y973836D02*
D03*
X890016Y932688D02*
D03*
Y903986D02*
D03*
X826300Y793966D02*
D03*
X876046Y961136D02*
D03*
X875538Y932942D02*
D03*
Y904240D02*
D03*
X826732Y844512D02*
D03*
X831088Y886968D02*
D03*
X922528Y922528D02*
D03*
X830072D02*
D03*
X1399286Y1420368D02*
D03*
X1336040D02*
D03*
X1450088Y1245110D02*
D03*
X1223008Y1336550D02*
D03*
X1092776Y687900D02*
D03*
Y644076D02*
D03*
X1092708Y831088D02*
D03*
Y793496D02*
D03*
X911606Y1640586D02*
D03*
X1389380Y1669796D02*
D03*
X677672Y1599344D02*
D03*
X799592Y1599438D02*
D03*
X1449578Y1641602D02*
D03*
X1477010Y1590040D02*
D03*
X1418590Y1602232D02*
D03*
X1448054Y1564640D02*
D03*
X676656Y1546098D02*
D03*
Y1449578D02*
D03*
X657606Y1318006D02*
D03*
X707390Y1424432D02*
D03*
Y1477518D02*
D03*
X1175004Y1420114D02*
D03*
X1062228Y1359916D02*
D03*
X1221486Y976122D02*
D03*
X1221994Y1161034D02*
D03*
X1207262Y1394206D02*
D03*
X858012Y1450848D02*
D03*
X857758Y1340104D02*
D03*
X832358Y1408938D02*
D03*
X831596Y1097534D02*
D03*
X1190498Y1203960D02*
D03*
X1014984Y1245616D02*
D03*
X1026668Y1014476D02*
D03*
X1065886Y945490D02*
D03*
X1065276Y973836D02*
D03*
X981964Y993648D02*
D03*
X1005586Y878840D02*
D03*
X1011936Y951992D02*
D03*
X1023620Y1025398D02*
D03*
X1045718Y1021334D02*
D03*
X1081786Y1097026D02*
D03*
X1079246Y1216660D02*
D03*
X939038Y1372362D02*
D03*
X1048004Y1202436D02*
D03*
X1166368Y1145032D02*
D03*
X1126490Y1176782D02*
D03*
X998220Y1176274D02*
D03*
X946912Y1097788D02*
D03*
X1051052Y909320D02*
D03*
X1119632Y1055878D02*
D03*
X1069848Y1047242D02*
D03*
X1027176Y993648D02*
D03*
X1010158Y909828D02*
D03*
X989838Y907542D02*
D03*
X922528Y953516D02*
D03*
X940054Y1072642D02*
D03*
X1223518Y1211326D02*
D03*
X967486Y1084834D02*
D03*
X984758Y1084326D02*
D03*
X984504Y1050544D02*
D03*
X997966Y1052576D02*
D03*
X904240Y1015746D02*
D03*
X902462Y993648D02*
D03*
M02*
