M48
;Layer_Color=9474304
;FILE_FORMAT=4:4
METRIC,LZ
;TYPE=PLATED
T1F00S00C0.4000
T2F00S00C0.8000
T3F00S00C0.9000
T4F00S00C1.0000
T6F00S00C1.3000
;TYPE=NON_PLATED
T7F00S00C0.9000
T8F00S00C2.5000
%
T01
X0084709Y00631698
X00821162Y00673374
X00837438Y0070739
X00853948Y0073152
X00883158Y00731012
X00837184Y00759714
X01092708Y00793496
X01092776Y006879
Y00644076
X01092708Y00831088
X01103122Y0092583
X0110363Y00937006
X01121918Y00932942
X0113284Y0092583
X01161288Y0089789
X01163574Y00997458
X01096264Y00997966
X01065276Y00973836
X01065886Y0094549
X0104394Y00957326
X01016762Y00964438
X01011936Y00951992
X00998728Y00951484
X01013206Y00936244
X01012952Y00923036
X01010158Y00909828
X00989838Y00907542
X00970682Y00898758
X00952502Y0090754
X0093345Y00932688
X00922528Y00922528
X0091059Y00933196
X00903478Y00945134
X00890016Y00932688
X00875538Y00932942
X0086487Y00927862
X00875538Y0090424
X00890016Y00903986
X00921258Y00889254
X0093599Y00872998
X00970534Y0086868
X01005586Y0087884
X01051052Y0090932
X01027176Y00993648
X01026668Y01014476
X0102362Y01025398
X01045718Y01021334
X01069848Y01047242
X01059942Y01066546
X01081786Y01097026
X01119632Y01055878
X0113284Y01056132
X01147572Y01140968
X01166368Y01145032
X01181354Y01188466
X01115568Y01187958
X0112649Y01176782
X0102362Y0118872
X0099822Y01176274
X00940054Y01131824
X00946912Y01097788
X00940054Y01072642
X00967486Y01084834
X00984758Y01084326
X00984504Y01050544
X00997966Y01052576
X00981964Y00993648
X00966978Y00993902
X00959104Y00981964
X00937514Y0097028
X00922528Y00953516
X00876046Y00961136
X00872744Y00973836
X00875538Y00986536
X00875792Y00999744
X00875284Y01011428
X00882396Y0102235
X0090424Y01015746
X00902462Y00993648
X00954278Y01016254
X0089281Y01086104
X00831596Y01097534
X00830072Y00922528
X00831088Y00886968
X00826732Y00844512
X008263Y00793966
X00869188Y00797052
X01221486Y00976122
X01288034Y0095885
X01298702Y01138936
X01286002Y01149096
X01221994Y01161034
X01223518Y01211326
X01223008Y0133655
X01207262Y01394206
X0133604Y01420368
X01399286
X0133096Y01529842
X01314704Y01564894
X0132207Y01576832
X01258824Y015494
X01448054Y0156464
X01450088Y0124511
X01190498Y0120396
X01102868Y01221486
X01079246Y0121666
X01048004Y01202436
X01014984Y01245616
X0110363Y0125476
X01062228Y01359916
X00939038Y01372362
X00857758Y01340104
X0084963Y0132207
X00832358Y01408938
X00858012Y01450848
X0088519Y0154559
X01004062Y01540764
X01052576Y01528826
X01100836Y01558036
X01148842Y01550416
X01175004Y01420114
X00770878Y014026
X0070739Y01424432
Y01477518
X00692912Y01491742
X00676656Y01449578
Y01546098
X00657606Y01318006
X0073152Y0134493
X00677672Y01599344
X00799592Y01599438
X00911606Y01640586
X01259078Y01590294
X01290828
X01310894Y01590548
X0141859Y01602232
X01449578Y01641602
X0147701Y0159004
X0138938Y01669796
T02
X00732536Y01641094
X00747268
X00762
X008382Y01640586
X00852932
X00867664
T03
X01181178Y00578044
Y00653044
Y00717865
Y00792864
X01119632Y01409192
X01094232
X00612728Y01539748
Y01565148
T04
X0151067Y00647554
Y00697555
Y00747554
X00998962Y00584816
X00973562
X00948162
X00922762
X00897362
X00871962
X00846562
X00821162
X00795762
Y00559416
X00821162
X00846562
X00871962
X00897362
X00922762
X00948162
X00973562
X00998962
X00770362
Y00584816
X00619892Y00750424
Y00800424
Y00850424
Y00900424
Y00994264
Y01044264
Y01094265
Y01144264
X01508892Y01140454
Y01090454
Y01040454
Y00990454
X01507114Y0090558
Y0085558
X0151067Y00797554
X01515767Y01523382
Y01573382
Y01623382
T06
X01381178Y00578044
X01431178
Y00653044
X01381178
Y00717865
X01431178
Y00792864
X01381178
X01429232Y00853034
Y00954534
X01428312Y01044535
Y01146035
X01310312Y01178035
Y01041035
X01311232Y00986534
Y00849534
T07
X01510033Y0123911
Y0128311
T08
X01487532Y00575664
X00637532
Y01675664
X01487532
M30
